<?xml version="1.0" encoding="utf-8"?>
<!-- Generator: Adobe Illustrator 25.2.3, SVG Export Plug-In . SVG Version: 6.00 Build 0)  -->
<svg version="1.1" id="Layer_1" xmlns="http://www.w3.org/2000/svg" xmlns:xlink="http://www.w3.org/1999/xlink" x="0px" y="0px"
	 viewBox="0 0 167.1 162.1" style="enable-background:new 0 0 167.1 162.1;" xml:space="preserve">
<style type="text/css">
	.st0{fill:#EDF5E1;}
	.st1{enable-background:new    ;}
	.st2{fill:#05386B;}
</style>
<g>
	<path class="st0" d="M58.2,146.1h69.7c0,0-20.2-16.2-19.8-34.1c0.3-9.9,19.8-22.6,19.7-50.1c-0.1-13.9-13.5-36.9-36.4-39.8
		C68.5,19.2,51.5,24.2,44,38.3c-7.5,14.1-8,26.4-7.5,28.7c0.6,2.3,3,6.6,3,6.6S28,91.3,28.7,94.2c0.7,2.9,8.6,4.4,8.6,4.4
		s0.7,2-0.7,5.9c-1.4,3.9,2.7,8.4,3.9,10c1.2,1.6-1.7,6.5-0.7,9.2c1,2.7,5.7,6,11.2,5.3c5.5-0.7,12.5-2,14.9-2.4
		C71.4,139.4,58.2,146.1,58.2,146.1z M87.9,104c-5.2,0-8.8-3.8-8.8-9c0-5.2,3.6-9,8.8-9c5.3,0,8.8,3.7,8.9,9
		C96.8,100.1,93.3,104,87.9,104z M89.3,35.3c13,0,19,7.2,19,15.4c0,7.5-4.6,12.4-8.4,16.6c-3.7,4-5.1,7.9-5,12.3v1.8H81.7l-0.1-2.6
		c-0.3-5,1.4-10.2,5.8-15.5c3.2-3.7,5.7-6.9,5.7-10.3c0-3.5-2.3-5.7-7.2-5.9c-3.3,0-7.2,1.2-9.8,3l-3.3-10.8
		C76.4,37.2,82.3,35.3,89.3,35.3z"/>
</g>
<g id="Layer_2_1_">
	<g id="Logo_2">
		<g id="_Your_Text_Here_">
			<g>
				<g class="st1">
					<path class="st2" d="M38.2,36.8l-9.4-9.1l-2.8,2.9l-1.8-1.7l7.5-7.9l1.8,1.7l-2.8,2.9l9.4,9.1L38.2,36.8z"/>
				</g>
			</g>
			<g>
				<g class="st1">
					<path class="st2" d="M52.5,25.8l-7.1-14l5.2-2.6c0.9-0.5,1.9-0.7,2.8-0.8c0.9,0,1.7,0.2,2.5,0.6s1.4,1.1,1.8,2.1
						c0.5,1,0.7,1.9,0.6,2.8c-0.1,0.9-0.5,1.7-1.1,2.4l6,4l-2.9,1.5l-6.5-4.4l2.2,0.1l-3.5,1.8l2.6,5.2L52.5,25.8z M51.3,17.1
						l2.7-1.4c0.5-0.2,0.8-0.5,1.1-0.9c0.2-0.4,0.4-0.7,0.4-1.2c0-0.4-0.1-0.8-0.3-1.3c-0.2-0.4-0.5-0.8-0.9-1
						c-0.3-0.2-0.7-0.3-1.2-0.4s-0.9,0.1-1.3,0.3l-2.7,1.4L51.3,17.1z"/>
				</g>
			</g>
			<g>
				<g class="st1">
					<path class="st2" d="M73.1,18.7L70.7,3.2l2.8-0.4l2.4,15.5L73.1,18.7z"/>
				</g>
			</g>
			<g>
				<g class="st1">
					<path class="st2" d="M94.7,18.8l-3-16.3l3.1,0.5L97,16.4l-0.6-0.1l6.2-12.2l3.1,0.5L98,19.2L94.7,18.8z"/>
				</g>
			</g>
			<g>
				<g class="st1">
					<path class="st2" d="M111.5,24.3l7-14l2.6,1.3l-7,14L111.5,24.3z"/>
				</g>
			</g>
			<g>
				<g class="st1">
					<path class="st2" d="M125.1,33.1l14.8-7.4l2.6,2.6l-7.1,15l-2.2-2.2l1.5-3.2l-4.3-4.2l-3.1,1.6L125.1,33.1z M132.8,32.4
						l3.1,3.1l3.6-7.4l0.6,0.6L132.8,32.4z"/>
				</g>
			</g>
			<g>
				<g class="st1">
					<path class="st2" d="M7.3,105.5c-0.3-1.1-0.4-2.1-0.3-3.2c0.1-1,0.4-2,0.9-2.9c0.5-0.9,1.2-1.7,2-2.3c0.8-0.7,1.8-1.2,2.9-1.5
						s2.2-0.5,3.3-0.4c1.1,0.1,2,0.4,2.9,0.8c0.9,0.5,1.7,1.1,2.3,1.9c0.7,0.8,1.1,1.7,1.5,2.8c0.3,1.1,0.4,2.1,0.3,3
						c-0.1,1-0.4,1.8-0.8,2.6c-0.4,0.8-0.9,1.4-1.6,1.9l-1.9-2.1c0.7-0.5,1.2-1.2,1.4-2c0.3-0.8,0.3-1.7,0-2.7
						c-0.3-0.9-0.8-1.7-1.4-2.3c-0.7-0.6-1.4-1-2.3-1.1c-0.9-0.2-1.9-0.1-2.9,0.2c-1,0.3-1.9,0.8-2.6,1.4c-0.7,0.6-1.1,1.4-1.3,2.2
						c-0.2,0.8-0.2,1.7,0.1,2.7c0.3,1,0.8,1.7,1.5,2.2s1.5,0.8,2.3,0.9l-0.4,2.8c-0.8,0-1.6-0.3-2.3-0.7c-0.8-0.4-1.5-1-2.1-1.7
						C8.1,107.5,7.7,106.6,7.3,105.5z"/>
				</g>
			</g>
			<g>
				<g class="st1">
					<path class="st2" d="M20.1,128.1c-0.7-1-1.1-1.9-1.4-3c-0.2-1-0.3-2.1-0.1-3.1c0.2-1,0.5-2,1.1-2.9c0.6-0.9,1.3-1.7,2.3-2.4
						c0.9-0.7,1.9-1.1,3-1.3c1-0.2,2.1-0.2,3.1-0.1c1,0.2,2,0.6,2.9,1.2c0.9,0.6,1.7,1.3,2.4,2.3c0.7,0.9,1.1,1.9,1.4,3
						s0.3,2.1,0.1,3.1c-0.2,1-0.5,2-1.1,2.9c-0.6,0.9-1.3,1.7-2.3,2.3c-0.9,0.7-1.9,1.1-3,1.3c-1,0.2-2.1,0.2-3.1,0.1
						c-1-0.2-2-0.6-2.9-1.1C21.6,129.9,20.8,129.1,20.1,128.1z M22.3,126.6c0.4,0.6,0.9,1.1,1.5,1.5s1.2,0.6,1.9,0.7
						c0.7,0.1,1.4,0.1,2.1-0.1c0.7-0.2,1.4-0.5,2-0.9c0.6-0.5,1.2-1,1.5-1.6c0.4-0.6,0.6-1.2,0.8-1.9s0.1-1.4,0-2
						c-0.2-0.7-0.4-1.3-0.9-1.9c-0.4-0.6-0.9-1.1-1.5-1.5c-0.6-0.4-1.2-0.6-1.9-0.7c-0.7-0.1-1.4-0.1-2.1,0.1
						c-0.7,0.2-1.4,0.5-2,0.9c-0.6,0.5-1.2,1-1.6,1.6c-0.4,0.6-0.7,1.2-0.8,1.9c-0.1,0.7-0.1,1.4,0,2
						C21.5,125.4,21.8,126,22.3,126.6z"/>
				</g>
			</g>
			<g>
				<g class="st1">
					<path class="st2" d="M33.4,140.9l9.1-12.7l2.2,1.6l0.2,9.9l-1.1-0.8l9.3-3.2l2.2,1.6L46.2,150l-2.3-1.7l7.2-10.1l0.7,0.9
						l-9.4,3l-0.3-0.2l-0.1-9.8l0.9,0.3l-7.2,10.1L33.4,140.9z"/>
				</g>
			</g>
			<g>
				<g class="st1">
					<path class="st2" d="M59,154.4l4.3-15l5.6,1.6c1,0.3,1.9,0.7,2.6,1.3c0.7,0.6,1.1,1.3,1.4,2.1c0.2,0.8,0.2,1.8-0.1,2.8
						c-0.3,1-0.8,1.8-1.4,2.4c-0.7,0.6-1.4,0.9-2.3,1.1s-1.8,0.1-2.9-0.2l-2.9-0.8l-1.6,5.6L59,154.4z M64,147.3l2.9,0.8
						c0.5,0.1,0.9,0.2,1.4,0.1c0.4-0.1,0.8-0.3,1.1-0.6c0.3-0.3,0.5-0.7,0.7-1.1c0.1-0.5,0.1-0.9,0-1.3c-0.1-0.4-0.3-0.8-0.6-1.1
						s-0.7-0.5-1.2-0.7l-2.9-0.8L64,147.3z"/>
				</g>
			</g>
			<g>
				<g class="st1">
					<path class="st2" d="M82.5,158.3l4.8-15.9l3.7-0.1l6,15.4l-3.1,0.1l-1.2-3.3l-6,0.2l-1,3.4L82.5,158.3z M87.3,152.2l4.4-0.2
						l-2.9-7.7l0.8,0L87.3,152.2z"/>
				</g>
			</g>
			<g>
				<g class="st1">
					<path class="st2" d="M109.4,154l-5.5-14.5l2.1-0.8l12,7.8l-1,0.6l-4.1-11l2.7-1l5.5,14.5l-2.1,0.8l-12-7.9l0.9-0.6l4.2,11.1
						L109.4,154z"/>
				</g>
			</g>
			<g>
				<g class="st1">
					<path class="st2" d="M132.5,141.7l-9.6-12.4l2.3-1.8l9.6,12.4L132.5,141.7z"/>
				</g>
			</g>
			<g>
				<g class="st1">
					<path class="st2" d="M152.3,120.6c-0.7,0.9-1.5,1.7-2.4,2.3c-0.9,0.6-1.9,0.9-2.9,1.1c-1,0.2-2.1,0.1-3.1-0.1
						c-1-0.2-2-0.7-3-1.4c-0.9-0.7-1.7-1.5-2.2-2.4c-0.6-0.9-0.9-1.9-1.1-2.9c-0.2-1-0.1-2.1,0.2-3.1c0.3-1,0.7-2,1.4-3
						c0.7-0.9,1.5-1.7,2.4-2.3c0.9-0.6,1.9-0.9,2.9-1.1c1-0.2,2.1-0.1,3.1,0.1c1,0.2,2,0.7,3,1.4c0.9,0.7,1.7,1.5,2.2,2.4
						c0.6,0.9,0.9,1.9,1.1,2.9c0.2,1,0.1,2.1-0.1,3.1C153.4,118.7,153,119.7,152.3,120.6z M150.2,119.1c0.4-0.6,0.7-1.3,0.9-1.9
						c0.2-0.7,0.2-1.4,0.1-2c-0.1-0.7-0.4-1.3-0.8-1.9s-0.9-1.1-1.5-1.6s-1.3-0.8-2-0.9c-0.7-0.2-1.4-0.2-2.1-0.1
						c-0.7,0.1-1.3,0.3-1.9,0.7c-0.6,0.4-1.1,0.9-1.6,1.5c-0.4,0.6-0.7,1.3-0.9,1.9c-0.2,0.7-0.2,1.4-0.1,2c0.1,0.7,0.4,1.3,0.8,1.9
						c0.4,0.6,0.9,1.1,1.5,1.6c0.6,0.5,1.3,0.8,2,1c0.7,0.2,1.4,0.2,2.1,0.1c0.7-0.1,1.3-0.3,1.9-0.7
						C149.2,120.2,149.8,119.7,150.2,119.1z"/>
				</g>
			</g>
			<g>
				<g class="st1">
					<path class="st2" d="M159.9,104l-15-4.6l0.7-2.1l13.6-4.8l-0.1,1.2l-11.3-3.5l0.8-2.7l15,4.6l-0.7,2.2l-13.6,4.7l0.1-1.1
						l11.4,3.5L159.9,104z"/>
				</g>
			</g>
		</g>
	</g>
</g>
</svg>
