<svg xmlns="http://www.w3.org/2000/svg" viewBox="0 0 167.12 162.15"><defs><style>.cls-1{font-size:21px;fill:#333;font-family:BebasNeue, Bebas Neue;}.cls-2{font-size:113.1px;font-family:MyriadPro-Regular, Myriad Pro;}</style></defs><g id="Layer_2" data-name="Layer 2"><g id="Logo_2" data-name="Logo 2"><g id="_Your_Text_Here_" data-name="[Your Text Here]"><text class="cls-1" transform="matrix(0.69, -0.72, 0.72, 0.69, 34.09, 39.91)">T</text><text class="cls-1" transform="translate(50.02 26.5) rotate(-26.82)">R</text><text class="cls-1" transform="translate(70.49 18.89) rotate(-8.94)">I</text><text class="cls-1" transform="matrix(0.99, 0.15, -0.15, 0.99, 87.96, 17.9)">V</text><text class="cls-1" transform="translate(109.03 23.6) rotate(26.6)">I</text><text class="cls-1" transform="translate(123.8 32.96) rotate(44.4)">A</text><text class="cls-1" transform="translate(3.87 96.94) rotate(73.19)">C</text><text class="cls-1" transform="translate(13.89 120.46) rotate(54.86)">O</text><text class="cls-1" transform="translate(31 140.01) rotate(35.42)">M</text><text class="cls-1" transform="translate(56.39 154.03) rotate(15.92)">P</text><text class="cls-1" transform="matrix(1, -0.04, 0.04, 1, 81.1, 158.31)">A</text><text class="cls-1" transform="matrix(0.93, -0.35, 0.35, 0.93, 106.9, 154.56)">N</text><text class="cls-1" transform="translate(130.21 142.58) rotate(-37.71)">I</text><text class="cls-1" transform="translate(145.57 127.97) rotate(-54.22)">O</text><text class="cls-1" transform="translate(158.34 105.47) rotate(-72.9)">N</text><text class="cls-2" transform="translate(60.49 119.96) scale(1.05 1)">?</text></g></g></g></svg>