<svg id="Layer_1" data-name="Layer 1" xmlns="http://www.w3.org/2000/svg" viewBox="0 0 156.64 155.85"><defs><style>.cls-1{fill:#edf5e1;}.cls-2{isolation:isolate;}.cls-3{fill:#05386b;}</style></defs><path class="cls-1" d="M58.18,146.07h69.66S107.63,129.82,108.05,112c.26-9.93,19.79-22.56,19.7-50.14-.07-13.87-13.52-36.93-36.36-39.8S51.45,24.22,44,38.3s-8,26.44-7.47,28.73a38.64,38.64,0,0,0,3,6.62S28,91.32,28.75,94.19s8.61,4.43,8.61,4.43.71,2-.73,5.87,2.68,8.39,3.91,10-1.72,6.46-.72,9.2,5.75,6,11.2,5.31,12.47-2,14.91-2.45C71.42,139.45,58.18,146.07,58.18,146.07ZM87.94,104c-5.23,0-8.78-3.85-8.78-9s3.64-9,8.78-9c5.33,0,8.79,3.74,8.88,9A8.57,8.57,0,0,1,87.94,104Zm1.38-68.7c13,0,19,7.21,19,15.4,0,7.5-4.64,12.43-8.38,16.58s-5.14,7.9-5,12.34v1.78H81.73l-.1-2.57c-.29-5,1.38-10.17,5.82-15.49,3.16-3.75,5.72-6.91,5.72-10.27S90.91,47.3,86,47.1a18.64,18.64,0,0,0-9.77,3L72.85,39.31A33.69,33.69,0,0,1,89.32,35.25Z" transform="translate(-6.97 -2.45)"/><g id="Layer_2" data-name="Layer 2"><g id="Logo_2" data-name="Logo 2"><g id="_Your_Text_Here_" data-name=" Your Text Here "><g class="cls-2"><path class="cls-3" d="M38.19,36.83l-9.45-9.06-2.8,2.92L24.12,29l7.54-7.86,1.81,1.74L30.72,25.7l9.45,9.05Z" transform="translate(-6.97 -2.45)"/></g><g class="cls-2"><path class="cls-3" d="M52.49,25.83l-7.06-14,5.21-2.64a6.64,6.64,0,0,1,2.78-.76,4.59,4.59,0,0,1,2.48.63,5,5,0,0,1,1.83,2.1A4.74,4.74,0,0,1,58.28,14a4.51,4.51,0,0,1-1.08,2.44l6,4-2.89,1.46L53.8,17.47,56,17.6l-3.51,1.78,2.61,5.15Zm-1.18-8.7L54,15.77a2.7,2.7,0,0,0,1.07-.88,2.18,2.18,0,0,0,.4-1.15,2.46,2.46,0,0,0-.29-1.27,2.39,2.39,0,0,0-.85-1,2.17,2.17,0,0,0-1.17-.35,2.81,2.81,0,0,0-1.33.33l-2.68,1.36Z" transform="translate(-6.97 -2.45)"/></g><g class="cls-2"><path class="cls-3" d="M73.1,18.66,70.67,3.2l2.84-.44,2.43,15.45Z" transform="translate(-6.97 -2.45)"/></g><g class="cls-2"><path class="cls-3" d="M94.71,18.75l-3-16.3,3.07.46,2.3,13.47-.6-.09L102.61,4.1l3.1.47L98,19.25Z" transform="translate(-6.97 -2.45)"/></g><g class="cls-2"><path class="cls-3" d="M111.5,24.27l7-14,2.57,1.29-7,14Z" transform="translate(-6.97 -2.45)"/></g><g class="cls-2"><path class="cls-3" d="M125.11,33.12l14.8-7.4,2.64,2.59-7.09,15-2.22-2.18,1.54-3.16-4.32-4.23-3.15,1.59Zm7.71-.67L136,35.52l3.59-7.36.57.56Z" transform="translate(-6.97 -2.45)"/></g><g class="cls-2"><path class="cls-3" d="M7.33,105.5A7.84,7.84,0,0,1,7,102.34a7.33,7.33,0,0,1,.91-2.86,8,8,0,0,1,2-2.32,8.63,8.63,0,0,1,2.91-1.5,8.53,8.53,0,0,1,3.25-.37A7.61,7.61,0,0,1,21.32,98a8.05,8.05,0,0,1,1.47,2.82,7.57,7.57,0,0,1,.33,3,7.06,7.06,0,0,1-.79,2.6,5.52,5.52,0,0,1-1.57,1.86l-1.91-2.1a4.15,4.15,0,0,0,1.45-4.65,4.86,4.86,0,0,0-1.42-2.28,4.62,4.62,0,0,0-2.33-1.12,6.28,6.28,0,0,0-2.91.23,6.39,6.39,0,0,0-2.57,1.42,4.72,4.72,0,0,0-1.33,2.23,4.82,4.82,0,0,0,.08,2.68,4.18,4.18,0,0,0,3.76,3.08l-.4,2.8a5.55,5.55,0,0,1-2.34-.68,6.91,6.91,0,0,1-2.09-1.72A7.81,7.81,0,0,1,7.33,105.5Z" transform="translate(-6.97 -2.45)"/></g><g class="cls-2"><path class="cls-3" d="M20.13,128.14a8.42,8.42,0,0,1-1.36-3,8.11,8.11,0,0,1-.1-3.1,8,8,0,0,1,1.1-2.91A8.5,8.5,0,0,1,25,115.46a7.72,7.72,0,0,1,3.1-.06A8.29,8.29,0,0,1,31,116.55a8.91,8.91,0,0,1,3.72,5.29,8.17,8.17,0,0,1,.11,3.11,7.84,7.84,0,0,1-1.1,2.89,8.1,8.1,0,0,1-2.25,2.35,8.24,8.24,0,0,1-3,1.33,7.9,7.9,0,0,1-3.1,0,8.09,8.09,0,0,1-2.89-1.14A8.37,8.37,0,0,1,20.13,128.14Zm2.13-1.49a5.41,5.41,0,0,0,1.54,1.48,5.19,5.19,0,0,0,4,.64,5.86,5.86,0,0,0,2-.93,6,6,0,0,0,1.55-1.58,5.33,5.33,0,0,0,.78-1.92,5.24,5.24,0,0,0,0-2,5.54,5.54,0,0,0-.88-1.94,5.44,5.44,0,0,0-1.54-1.49,5,5,0,0,0-1.91-.72,5.37,5.37,0,0,0-2.07.08,5.9,5.9,0,0,0-2,.93,5.67,5.67,0,0,0-1.55,1.58,5,5,0,0,0-.78,1.92,5.19,5.19,0,0,0,0,2A5.12,5.12,0,0,0,22.26,126.65Z" transform="translate(-6.97 -2.45)"/></g><g class="cls-2"><path class="cls-3" d="M33.35,140.87l9.07-12.75,2.24,1.6.17,9.88-1.07-.75,9.29-3.17,2.22,1.58L46.21,150l-2.35-1.66L51,138.25l.75.87-9.43,3-.27-.19L42,132.12l.93.32-7.18,10.1Z" transform="translate(-6.97 -2.45)"/></g><g class="cls-2"><path class="cls-3" d="M59,154.44l4.29-15.05L68.89,141a6.7,6.7,0,0,1,2.56,1.33,4.46,4.46,0,0,1,1.38,2.14,4.94,4.94,0,0,1-.07,2.79,4.74,4.74,0,0,1-1.41,2.36,4.52,4.52,0,0,1-2.3,1.09,6.51,6.51,0,0,1-2.87-.22l-2.87-.82-1.58,5.56ZM64,147.25l2.9.83a2.77,2.77,0,0,0,1.36.07,2.25,2.25,0,0,0,1.09-.57,2.43,2.43,0,0,0,.66-1.12,2.38,2.38,0,0,0,0-1.32,2.35,2.35,0,0,0-.62-1,2.7,2.7,0,0,0-1.19-.65l-2.91-.83Z" transform="translate(-6.97 -2.45)"/></g><g class="cls-2"><path class="cls-3" d="M82.47,158.3l4.77-15.86,3.7-.15,6,15.43-3.11.12-1.24-3.29-6,.24-1,3.39Zm4.81-6.08,4.38-.18-2.89-7.66.8,0Z" transform="translate(-6.97 -2.45)"/></g><g class="cls-2"><path class="cls-3" d="M109.43,154,104,139.49l2.09-.79,12,7.78-1,.61-4.14-11,2.66-1,5.48,14.55-2.11.8-12-7.9.89-.58L112.1,153Z" transform="translate(-6.97 -2.45)"/></g><g class="cls-2"><path class="cls-3" d="M132.53,141.67,123,129.29l2.28-1.76,9.57,12.38Z" transform="translate(-6.97 -2.45)"/></g><g class="cls-2"><path class="cls-3" d="M152.3,120.64a8.59,8.59,0,0,1-2.37,2.26,7.93,7.93,0,0,1-6,1,8,8,0,0,1-3-1.37,8.25,8.25,0,0,1-2.24-2.37,7.78,7.78,0,0,1-1.07-2.9,7.93,7.93,0,0,1,.16-3.1,8.84,8.84,0,0,1,3.78-5.25,8.06,8.06,0,0,1,2.9-1.12,7.86,7.86,0,0,1,3.09.09,8.16,8.16,0,0,1,2.95,1.37,8,8,0,0,1,2.23,2.38,7.87,7.87,0,0,1,1.07,2.92,8.11,8.11,0,0,1-.13,3.1A8.4,8.4,0,0,1,152.3,120.64Zm-2.11-1.52a5.47,5.47,0,0,0,.9-2,5.39,5.39,0,0,0,.06-2,5.23,5.23,0,0,0-.76-1.93,5.84,5.84,0,0,0-1.54-1.6,5.91,5.91,0,0,0-2-.95,5.32,5.32,0,0,0-2.06-.1,4.89,4.89,0,0,0-1.92.7,5.4,5.4,0,0,0-1.55,1.47,5.29,5.29,0,0,0-.91,1.94,5,5,0,0,0-.06,2,5.23,5.23,0,0,0,.76,1.93,6.15,6.15,0,0,0,3.53,2.54,5,5,0,0,0,2.07.11,5.18,5.18,0,0,0,1.92-.7A5.27,5.27,0,0,0,150.19,119.12Z" transform="translate(-6.97 -2.45)"/></g><g class="cls-2"><path class="cls-3" d="M159.92,104,145,99.44l.66-2.14,13.6-4.8-.11,1.15-11.3-3.48.84-2.73,15,4.6-.67,2.17L149.3,98.87l.08-1.08,11.38,3.5Z" transform="translate(-6.97 -2.45)"/></g></g></g></g></svg>